<?xml version="1.0" encoding="UTF-8"?>
<svg width="176px" height="38px" viewBox="0 0 176 38" version="1.1" xmlns="http://www.w3.org/2000/svg" xmlns:xlink="http://www.w3.org/1999/xlink">
    <!-- Generator: Sketch 51.2 (57519) - http://www.bohemiancoding.com/sketch -->
    <title>logo_puma_v5-08</title>
    <desc>Created with Sketch.</desc>
    <defs></defs>
    <g id="Page-1" stroke="none" stroke-width="1" fill="none" fill-rule="evenodd">
        <g id="logo_puma_v5-08" fill="#FFFFFF">
            <polyline id="Fill-1" points="17 20 5.39312977 20 0 38 11.6068702 38 17 20"></polyline>
            <path d="M39.4789037,0 L25.518862,0 L22.0014441,11.8251051 L34.5372182,11.8251051 C36.771454,11.8251051 38.0402964,13.7034869 37.3575361,16.0002377 C36.6743133,18.2965131 34.2874279,20.1748949 32.0531921,20.1748949 L19.517418,20.1748949 L19.2898312,20.9412709 L16,32 L29.9600416,32 C38.5440402,32 47.6627751,24.8225943 50.2869613,16.0002377 C52.9116102,7.1774057 48.0629022,0 39.4789037,0" id="Fill-2"></path>
            <polyline id="Fill-3" points="23 0 11.5723233 0 8 12 19.4276767 12 23 0"></polyline>
            <path d="M65.2643312,16.5309642 C67.7764331,16.5309642 69.2687898,15.3571877 69.7420382,13.0096349 C69.8547771,12.4133212 69.910828,11.9005795 69.910828,11.4726663 C69.910828,10.726803 69.7031847,10.1914403 69.2878981,9.86532151 C68.8719745,9.53920268 68.1643312,9.37582909 67.1630573,9.37582909 L62.4318471,9.37582909 L60.9019108,16.5309642 L65.2643312,16.5309642 Z M59.8528662,7 L67.9853503,7 C69.6471338,7 70.8987261,7.39586679 71.7382166,8.18822872 C72.5796178,8.98059066 73,10.0469175 73,11.3884661 C73,11.9100049 72.9426752,12.4503945 72.8292994,13.0096349 C72.4140127,14.8538714 71.5732484,16.3028695 70.3076433,17.3560008 C69.0426752,18.4091322 67.3808917,18.9350695 65.3216561,18.9350695 L60.3917197,18.9350695 L59.0878981,25 L56,25 L59.8528662,7 Z" id="Fill-4"></path>
            <path d="M74.0708321,24.0310744 C73.3558734,23.3853407 73,22.4450276 73,21.2107855 C73,20.7477821 73.0558863,20.2269032 73.1702283,19.6487993 L74.9707935,11 L78.0856494,11 L76.2857265,19.6487993 C76.1900133,20.1313113 76.1424778,20.5169307 76.1424778,20.8056575 C76.1424778,21.480654 76.3422551,21.9534117 76.7424521,22.2232802 C77.1426491,22.4937991 77.7901589,22.6284082 78.6856237,22.6284082 C79.4282044,22.6284082 80.1521562,22.4885968 80.8574793,22.2083237 C81.5615177,21.9293511 82.2096698,21.5391797 82.7993662,21.0371592 L84.9146932,11 L88,11 L85.1433772,24.7106229 L82.3143763,24.7106229 L82.4569826,23.2930001 C80.799666,24.431 78.9991007,25 77.0572138,25 C75.7801807,25 74.7851484,24.6774583 74.0708321,24.0310744" id="Fill-5"></path>
            <path d="M90.8506519,11.2887402 L93.7000223,11.2887402 L93.557778,12.7356931 C95.2294685,11.5781308 96.9299922,11 98.65999,11 C99.5704814,11 100.265043,11.1489223 100.739832,11.4480676 C101.215261,11.7472129 101.567027,12.1952806 101.79449,12.7929208 C102.612074,12.21479 103.461695,11.7706243 104.345275,11.4623746 C105.228856,11.1541249 106.20214,11 107.267049,11 C108.482533,11 109.408402,11.273783 110.045298,11.8239502 C110.682193,12.3734671 111,13.2078224 111,14.3263657 C111,14.6924935 110.934004,15.2322557 110.801371,15.9456522 L108.920158,25 L105.870236,25 L107.693782,16.2636566 C107.789252,15.7440543 107.836667,15.3486622 107.836667,15.0781308 C107.836667,14.4804905 107.656619,14.0512821 107.294601,13.7911557 C106.934505,13.530379 106.336054,13.4003159 105.499889,13.4003159 C104.83416,13.4003159 104.188294,13.5212746 103.56165,13.7625418 C102.934366,14.003809 102.373719,14.3452248 101.879708,14.7893906 C101.879708,15.1750279 101.823323,15.6471572 101.709271,16.2057785 L99.8850847,25 L97.0062402,25 L98.8022342,16.2929208 C98.9162859,15.7921776 98.972671,15.3668711 98.972671,15.0202527 C98.972671,14.4616314 98.8163305,14.0512821 98.5017272,13.7911557 C98.1890461,13.530379 97.6809394,13.4003159 96.9780477,13.4003159 C96.3507633,13.4003159 95.7048975,13.5498885 95.0391687,13.8483835 C94.3747214,14.1475288 93.7378259,14.5383686 93.1297638,15.0202527 L91.049922,25 L88,25 L90.8506519,11.2887402" id="Fill-6"></path>
            <path d="M121.869213,21.2586811 L123.263789,14.5985983 C122.909661,14.1838165 122.519179,13.8716152 122.092345,13.6632686 C121.664884,13.4555591 121.134631,13.3517044 120.503468,13.3517044 C119.165302,13.3517044 118.049641,13.800892 117.157739,14.697993 C116.266463,15.595094 115.643448,16.8853138 115.28932,18.566741 C115.123224,19.3032813 115.038609,19.9264097 115.038609,20.4367633 C115.038609,21.2688754 115.281172,21.8499522 115.764416,22.1799936 C116.247033,22.5106722 117.056201,22.67633 118.189412,22.67633 C119.545755,22.67633 120.772355,22.2042052 121.869213,21.2586811 Z M112,20.6075183 C112,20.0404587 112.074586,19.3510672 112.223132,18.5387066 C112.520224,17.0076457 113.063639,15.6715514 113.85463,14.5278751 C114.644367,13.3854731 115.587038,12.5113093 116.683896,11.906021 C117.780754,11.302007 118.942169,11 120.16877,11 C120.968536,11 121.646707,11.0942975 122.203284,11.2828926 C122.761742,11.4721249 123.281966,11.7836891 123.765837,12.2182224 L123.960137,11.2828926 L127,11.2828926 L124.211474,24.7164702 L121.618502,24.7164702 L121.674912,23.3841988 C120.949733,23.9512584 120.20575,24.3622173 119.444217,24.6177126 C118.681431,24.8725709 117.827135,25 116.87945,25 C113.625857,25 112,23.5358394 112,20.6075183 Z" id="Fill-7"></path>
            <path d="M137.265373,16.5309642 C139.77712,16.5309642 141.269007,15.3571877 141.741672,13.0096349 C141.855061,12.4133212 141.912392,11.9005795 141.912392,11.4726663 C141.912392,10.726803 141.704088,10.1914403 141.288755,9.86532151 C140.873422,9.53920268 140.163788,9.37582909 139.163675,9.37582909 L134.430659,9.37582909 L132.901825,16.5309642 L137.265373,16.5309642 Z M131.853299,7 L139.984787,7 C141.647394,7 142.89849,7.39586679 143.739986,8.18822872 C144.579571,8.98059066 145,10.0469175 145,11.3884661 C145,11.9100049 144.943943,12.4503945 144.831191,13.0096349 C144.413947,14.8538714 143.574362,16.3028695 142.309252,17.3560008 C141.04223,18.4091322 139.38026,18.9350695 137.32143,18.9350695 L132.391576,18.9350695 L131.087608,25 L128,25 L131.853299,7 Z" id="Fill-8"></path>
            <path d="M154.87045,21.2586811 L156.263321,14.5985983 C155.911028,14.1838165 155.520498,13.8716152 155.092983,13.6632686 C154.664842,13.4555591 154.135777,13.3517044 153.503907,13.3517044 C152.165573,13.3517044 151.050399,13.800892 150.157758,14.697993 C149.265118,15.595094 148.642024,16.8853138 148.289732,18.566741 C148.121735,19.3032813 148.038363,19.9264097 148.038363,20.4367633 C148.038363,21.2688754 148.279702,21.8499522 148.763007,22.1799936 C149.246939,22.5106722 150.054954,22.67633 151.188934,22.67633 C152.546701,22.67633 153.773455,22.2042052 154.87045,21.2586811 Z M145,20.6075183 C145,20.0404587 145.073342,19.3510672 145.222533,18.5387066 C145.519035,17.0076457 146.062518,15.6715514 146.853609,14.5278751 C147.642818,13.3854731 148.586861,12.5113093 149.683856,11.906021 C150.779598,11.302007 151.941786,11 153.16854,11 C153.96778,11 154.646036,11.0942975 155.204564,11.2828926 C155.761837,11.4721249 156.282126,11.7836891 156.765431,12.2182224 L156.961637,11.2828926 L160,11.2828926 L157.212378,24.7164702 L154.619081,24.7164702 L154.674245,23.3841988 C153.949601,23.9512584 153.206152,24.3622173 152.443897,24.6177126 C151.682268,24.8725709 150.826612,25 149.878808,25 C146.625434,25 145,23.5358394 145,20.6075183 Z" id="Fill-9"></path>
            <path d="M162.605569,28.9165773 C161.875591,28.8611697 161.342317,28.7964238 161,28.722962 L161.540299,26.3142877 C161.899859,26.4244803 162.364798,26.5122609 162.932558,26.5763843 C163.500958,26.6411303 164.01124,26.6741258 164.466599,26.6741258 C166.05684,26.6741258 167.367991,26.4338187 168.40069,25.9532044 C169.432111,25.4732127 170.053519,24.7261439 170.261719,23.7107529 L170.46034,22.7688237 C168.81262,23.858299 167.032699,24.4030367 165.120577,24.4030367 C163.870098,24.4030367 162.885298,24.080552 162.165538,23.4343375 C161.445779,22.7875004 161.086218,21.8742088 161.086218,20.6919725 C161.086218,20.2487117 161.142419,19.7786809 161.256099,19.2800125 L163.046238,11 L166.143058,11 L164.352919,19.2800125 C164.258398,19.74195 164.211138,20.1111265 164.211138,20.3875419 C164.211138,20.9970256 164.404011,21.4396638 164.793588,21.7167018 C165.181249,21.9937398 165.830119,22.1325701 166.739558,22.1325701 C167.477839,22.1325701 168.197599,21.9987203 168.898838,21.7303981 C169.598161,21.463321 170.243198,21.0897866 170.82948,20.6091723 L172.932558,11 L176,11 L173.329161,23.2400996 C172.970239,24.9571127 172.046749,26.3454156 170.559969,27.4074984 C169.073189,28.4689586 167.042279,29 164.466599,29 C163.955039,29 163.33427,28.9719849 162.605569,28.9165773" id="Fill-10"></path>
        </g>
    </g>
</svg>