<svg width="55" height="55" viewBox="0 0 55 55" fill="none" xmlns="http://www.w3.org/2000/svg">
<path d="M50.1458 37.8795C50.4282 37.2877 50.5829 36.6433 50.6 35.9881C50.6 32.4318 46.5063 29.6005 41.0242 29.1C42.2824 25.3351 42.3122 21.2689 41.1093 17.486C39.9065 13.7031 37.5329 10.3984 34.33 8.04712C31.127 5.69581 27.2596 4.41899 23.2839 4.40023C19.3082 4.38148 15.4289 5.62177 12.2038 7.94276C8.97873 10.2638 6.57401 13.5459 5.3354 17.3173C4.09678 21.0886 4.08808 25.1549 5.31054 28.9316C6.53301 32.7082 8.92366 36.0005 12.1388 38.3353C15.3539 40.67 19.2278 41.9268 23.2036 41.925C24.9088 41.9096 26.6039 41.6624 28.2422 41.1902C28.31 41.3611 28.3871 41.5282 28.4731 41.6906C28.1884 42.2906 28.0353 42.9443 28.0239 43.6081C28.0239 47.5288 32.9822 50.6 39.3119 50.6C45.6417 50.6 50.6 47.5288 50.6 43.6081C50.5884 42.9444 50.4353 42.2907 50.1508 41.6908C50.4471 41.0989 50.6009 40.4462 50.6 39.7845C50.5992 39.1229 50.4436 38.4706 50.1458 37.8795ZM48.862 39.8093C48.862 42.6581 44.4876 45.0653 39.312 45.0653C34.1364 45.0653 29.7619 42.6581 29.7619 39.8093C29.7619 39.7869 29.77 39.7647 29.7706 39.7423C32.4258 41.9883 35.8357 43.145 39.312 42.9789C42.7882 43.145 46.1982 41.9883 48.8534 39.7423C48.8538 39.7647 48.862 39.7869 48.862 39.8093H48.862ZM48.862 35.9881C48.862 38.8368 44.4876 41.244 39.312 41.244C34.1364 41.244 29.7619 38.8369 29.7619 35.9881C29.7619 33.1382 34.1364 30.7311 39.312 30.7311C44.4876 30.7311 48.862 33.1382 48.862 35.9881H48.862ZM6.13799 23.1529C6.13206 20.6605 6.67396 18.1973 7.7255 15.9367C8.77703 13.6762 10.3126 11.6736 12.2238 10.07C14.1351 8.46639 16.3755 7.30094 18.7871 6.65581C21.1987 6.01068 23.7227 5.9016 26.1811 6.33625C28.6395 6.7709 30.9724 7.7387 33.0154 9.1714C35.0583 10.6041 36.7615 12.4668 38.0048 14.6281C39.2481 16.7894 40.0013 19.1967 40.2111 21.6803C40.421 24.1638 40.0825 26.663 39.2194 29.0017C32.9354 29.0322 28.0239 32.0871 28.0239 35.988C28.041 36.6433 28.1958 37.2876 28.4781 37.8794C28.2512 38.3759 28.1128 38.908 28.069 39.4519C25.524 40.2275 22.832 40.3949 20.2102 39.9406C17.5885 39.4864 15.1104 38.4232 12.976 36.8369C10.8416 35.2506 9.11063 33.1857 7.92283 30.8087C6.73502 28.4317 6.12363 25.8092 6.13799 23.1529ZM48.862 43.6081C48.862 46.4579 44.4875 48.865 39.3119 48.865C34.1363 48.865 29.7619 46.4579 29.7619 43.6081L29.768 43.5606C32.4232 45.8087 35.8343 46.9666 39.3119 46.8002C42.7895 46.9665 46.2007 45.8086 48.8559 43.5605L48.862 43.6081Z" fill="#4175F7"/>
<path d="M37.5327 31.7245C37.4681 31.7306 37.4044 31.745 37.3429 31.7674C37.2954 31.7902 37.2499 31.818 37.207 31.8502C37.156 31.8806 37.108 31.9168 37.0639 31.9585C37.0221 32.0058 36.9849 32.0579 36.9528 32.1139C36.9247 32.1475 36.8989 32.1836 36.8757 32.2217L36.2589 33.5591L36.2575 33.5648L35.7519 34.6666C35.6996 34.7793 35.6676 34.9024 35.6578 35.0289C35.648 35.1555 35.6607 35.2829 35.695 35.404C35.7293 35.5251 35.7846 35.6373 35.8578 35.7343C35.9309 35.8314 36.0204 35.9112 36.1212 35.9693C36.222 36.0275 36.332 36.0627 36.4449 36.073C36.5579 36.0834 36.6716 36.0686 36.7794 36.0295C36.8872 35.9905 36.9871 35.9279 37.0733 35.8455C37.1595 35.763 37.2303 35.6623 37.2817 35.549L37.7861 34.4496L37.7886 34.4466L38.1649 33.6309H41.1242C42.6294 33.6309 43.6276 34.3863 43.6276 34.8853C43.6276 35.3857 42.6294 36.1411 41.1242 36.1411H35.5948C35.5531 36.1468 35.5119 36.1562 35.4716 36.1691C35.414 36.1755 35.3572 36.1883 35.3019 36.2074C35.2031 36.2606 35.1089 36.3242 35.0208 36.3974C34.9755 36.4477 34.9354 36.5037 34.9014 36.5643C34.8754 36.5955 34.8515 36.6289 34.8299 36.664L33.899 38.6866C33.8461 38.7992 33.8137 38.9225 33.8036 39.0493C33.7935 39.1761 33.8058 39.3039 33.84 39.4253C33.8741 39.5467 33.9293 39.6593 34.0025 39.7567C34.0756 39.854 34.1652 39.9342 34.2662 39.9926C34.3671 40.051 34.4773 40.0864 34.5905 40.0968C34.7037 40.1073 34.8176 40.0925 34.9257 40.0533C35.0337 40.0142 35.1338 39.9515 35.2202 39.8688C35.3065 39.7861 35.3774 39.685 35.4288 39.5715L36.119 38.0719H41.1241C43.4928 38.0719 45.3502 36.6716 45.3502 34.8853C45.3502 33.0991 43.4928 31.7001 41.1241 31.7001H37.6406C37.6042 31.7054 37.5681 31.7136 37.5327 31.7245Z" fill="#4175F7"/>
<path d="M22.9284 29.0505C22.761 28.8833 22.5338 28.7893 22.2968 28.789C22.0598 28.7888 21.8325 28.8825 21.6647 29.0493C21.497 29.2162 21.4026 29.4427 21.4024 29.6789C21.4022 29.9152 21.4961 30.1418 21.6636 30.309L23.3148 31.9543C21.5307 31.9068 19.8014 31.3298 18.3482 30.297C16.895 29.2643 15.7839 27.8228 15.1572 26.1571C14.5304 24.4913 14.4165 22.677 14.83 20.9464C15.2435 19.2158 16.1657 17.6474 17.4784 16.4422C17.6514 16.2815 17.7534 16.059 17.7621 15.8235C17.7709 15.588 17.6856 15.3586 17.525 15.1857C17.3644 15.0127 17.1416 14.9103 16.9054 14.9007C16.6691 14.8912 16.4387 14.9755 16.2647 15.135C14.6787 16.5938 13.5692 18.4942 13.0802 20.5895C12.5913 22.6848 12.7454 24.8782 13.5226 26.8851C14.2998 28.8919 15.6642 30.6196 17.4388 31.8438C19.2133 33.0681 21.316 33.7323 23.474 33.7504L21.7891 35.43C21.7062 35.5128 21.6405 35.6111 21.5956 35.7192C21.5508 35.8273 21.5278 35.9431 21.5279 36.0601C21.5281 36.1771 21.5513 36.2929 21.5963 36.4009C21.6413 36.5089 21.7072 36.6071 21.7902 36.6897C21.8733 36.7724 21.9719 36.8379 22.0803 36.8825C22.1888 36.9272 22.305 36.9501 22.4223 36.95C22.5397 36.9499 22.6558 36.9268 22.7642 36.8819C22.8726 36.837 22.971 36.7713 23.0539 36.6886L26.1905 33.5608C26.3569 33.3934 26.4503 33.1672 26.4503 32.9315C26.4503 32.6958 26.3569 32.4697 26.1905 32.3023L22.9284 29.0505Z" fill="#4175F7"/>
<path d="M29.2514 31.5462C31.1914 30.2315 32.6256 28.3192 33.3251 26.1141C34.0246 23.9091 33.9493 21.5384 33.1111 19.3802C32.2728 17.2219 30.72 15.4005 28.7003 14.2063C26.6805 13.0121 24.3102 12.514 21.9673 12.7914L23.6789 11.1169C23.761 11.0376 23.8263 10.9431 23.871 10.839C23.9157 10.7349 23.9389 10.6231 23.9394 10.5102C23.9398 10.3972 23.9174 10.2853 23.8734 10.1809C23.8295 10.0765 23.7649 9.98155 23.6833 9.90162C23.6018 9.82168 23.5049 9.75831 23.3982 9.71513C23.2915 9.67196 23.1772 9.64983 23.0617 9.65003C22.9463 9.65022 22.832 9.67274 22.7255 9.71628C22.619 9.75982 22.5223 9.82352 22.4411 9.90373L19.3579 12.919C19.2763 12.9985 19.2115 13.0929 19.1673 13.1969C19.123 13.3009 19.1001 13.4124 19.0999 13.5251C19.0996 13.6378 19.1221 13.7494 19.166 13.8535C19.2099 13.9577 19.2743 14.0524 19.3556 14.1322L22.5598 17.268C22.6414 17.3478 22.7383 17.411 22.8449 17.4542C22.9514 17.4973 23.0657 17.5194 23.181 17.5193C23.3543 17.519 23.5236 17.4685 23.6676 17.3742C23.8116 17.28 23.9239 17.1461 23.9903 16.9895C24.0568 16.8329 24.0743 16.6606 24.0408 16.4943C24.0074 16.3279 23.9243 16.175 23.8022 16.0548L22.2055 14.4927C22.5293 14.4553 22.855 14.4353 23.181 14.4327C25.0583 14.4323 26.8868 15.0177 28.4007 16.1036C29.9147 17.1895 31.0353 18.7194 31.5996 20.471C32.164 22.2227 32.1427 24.1047 31.5388 25.8437C30.935 27.5827 29.7801 29.0879 28.2419 30.1408C28.0526 30.2722 27.9242 30.4716 27.8848 30.6954C27.8454 30.9192 27.8982 31.1492 28.0317 31.335C28.1651 31.5208 28.3684 31.6473 28.5969 31.6869C28.8255 31.7265 29.0608 31.6759 29.2513 31.5462H29.2514Z" fill="#4175F7"/>
</svg>
