<svg width="8" height="11" viewBox="0 0 8 11" fill="none" xmlns="http://www.w3.org/2000/svg">
<path d="M3.93795 7.82239C3.87707 7.76159 3.79446 7.72739 3.70828 7.72731C3.6221 7.72723 3.53943 7.76128 3.47843 7.82196C3.41744 7.88265 3.38313 7.965 3.38305 8.05091C3.38297 8.13681 3.41713 8.21923 3.47801 8.28003L4.07846 8.87832C3.4297 8.86104 2.80087 8.65121 2.27243 8.27567C1.74398 7.90013 1.33996 7.37596 1.11205 6.77023C0.884147 6.1645 0.842728 5.50477 0.993094 4.87544C1.14346 4.24611 1.47877 3.67582 1.95613 3.23753C2.01903 3.17911 2.05613 3.09822 2.05931 3.01257C2.06249 2.92693 2.03148 2.84353 1.97308 2.78063C1.91469 2.71774 1.83366 2.68048 1.74776 2.67702C1.66185 2.67357 1.57808 2.70419 1.51479 2.76219C0.938059 3.29269 0.53461 3.98374 0.356803 4.74566C0.178996 5.50758 0.235042 6.30519 0.517666 7.03496C0.80029 7.76473 1.29644 8.39297 1.94173 8.83814C2.58701 9.28332 3.35164 9.52487 4.13636 9.53144L3.52365 10.1422C3.49351 10.1723 3.46961 10.2081 3.45331 10.2474C3.43702 10.2867 3.42866 10.3288 3.4287 10.3713C3.42873 10.4139 3.43718 10.456 3.45354 10.4953C3.46991 10.5345 3.49388 10.5702 3.52408 10.6003C3.55428 10.6303 3.59012 10.6542 3.62956 10.6704C3.66899 10.6866 3.71126 10.695 3.75393 10.6949C3.7966 10.6949 3.83884 10.6865 3.87825 10.6702C3.91766 10.6539 3.95345 10.63 3.9836 10.5999L5.12416 9.46249C5.18468 9.40162 5.21864 9.31938 5.21864 9.23367C5.21864 9.14796 5.18468 9.06572 5.12416 9.00485L3.93795 7.82239Z" fill="#4175F7"/>
<path d="M6.23738 8.72981C6.94283 8.25175 7.46434 7.55636 7.71872 6.75453C7.97309 5.9527 7.94569 5.09063 7.64088 4.30582C7.33607 3.521 6.77141 2.85865 6.03696 2.4244C5.3025 1.99015 4.44057 1.80901 3.58862 1.90989L4.211 1.301C4.24087 1.27214 4.26461 1.23779 4.28087 1.19993C4.29712 1.16206 4.30557 1.12143 4.30571 1.08036C4.30586 1.03929 4.29772 0.998601 4.28174 0.960624C4.26576 0.922646 4.24227 0.888133 4.21261 0.859066C4.18296 0.83 4.14772 0.806954 4.10893 0.791254C4.07014 0.775553 4.02856 0.767507 3.98659 0.767579C3.94461 0.76765 3.90306 0.775837 3.86432 0.79167C3.82559 0.807502 3.79044 0.830668 3.76089 0.859835L2.63975 1.95628C2.61008 1.98519 2.58651 2.01953 2.57041 2.05735C2.55431 2.09517 2.54598 2.13572 2.5459 2.17669C2.54582 2.21766 2.55399 2.25824 2.56995 2.29612C2.58591 2.334 2.60934 2.36843 2.6389 2.39745L3.80407 3.53775C3.83374 3.56676 3.86896 3.58976 3.90772 3.60544C3.94648 3.62113 3.98802 3.62918 4.02996 3.62915C4.09297 3.62902 4.15454 3.61066 4.20691 3.57638C4.25928 3.5421 4.30011 3.49342 4.32426 3.43648C4.34841 3.37954 4.3548 3.31688 4.34262 3.2564C4.33045 3.19591 4.30026 3.1403 4.25584 3.09657L3.67524 2.52856C3.79299 2.51497 3.9114 2.50768 4.02996 2.50673C4.7126 2.5066 5.3775 2.71944 5.92804 3.11432C6.47857 3.5092 6.88605 4.06554 7.09127 4.70249C7.29648 5.33945 7.28874 6.02383 7.06916 6.65618C6.84958 7.28853 6.42961 7.83591 5.87028 8.21877C5.80144 8.26656 5.75476 8.33907 5.74043 8.42045C5.7261 8.50183 5.74531 8.58545 5.79384 8.65301C5.84236 8.72058 5.91627 8.76659 5.99938 8.78098C6.0825 8.79537 6.16806 8.77697 6.23734 8.72981H6.23738Z" fill="#4175F7"/>
</svg>
