<svg width="11" height="15" viewBox="0 0 11 15" fill="none" xmlns="http://www.w3.org/2000/svg">
<path d="M5.46698 10.2515C5.38479 10.1695 5.27326 10.1233 5.15692 10.1232C5.04058 10.1231 4.92896 10.169 4.84662 10.251C4.76429 10.3329 4.71797 10.4441 4.71786 10.56C4.71775 10.676 4.76386 10.7873 4.84605 10.8693L5.65666 11.677C4.78084 11.6537 3.93192 11.3704 3.21851 10.8635C2.50511 10.3565 1.95968 9.64885 1.65201 8.83112C1.34434 8.01339 1.28842 7.12274 1.49142 6.27315C1.69441 5.42356 2.14708 4.65367 2.79151 4.06198C2.87642 3.98311 2.92651 3.8739 2.9308 3.75828C2.9351 3.64267 2.89324 3.53007 2.8144 3.44516C2.73557 3.36025 2.62618 3.30995 2.51021 3.30529C2.39424 3.30062 2.28115 3.34197 2.1957 3.42027C1.41712 4.13644 0.872462 5.06936 0.632423 6.09795C0.392384 7.12654 0.468045 8.20331 0.849587 9.1885C1.23113 10.1737 1.90094 11.0218 2.77207 11.6228C3.64321 12.2238 4.67545 12.5499 5.73483 12.5588L4.90767 13.3833C4.86698 13.4239 4.83471 13.4722 4.81271 13.5252C4.79072 13.5783 4.77943 13.6352 4.77948 13.6926C4.77953 13.75 4.79093 13.8069 4.81302 13.8599C4.83512 13.9129 4.86747 13.9611 4.90824 14.0017C4.94901 14.0423 4.9974 14.0744 5.05064 14.0963C5.10388 14.1183 5.16093 14.1295 5.21854 14.1295C5.27614 14.1294 5.33317 14.1181 5.38637 14.096C5.43957 14.074 5.4879 14.0418 5.5286 14.0011L7.06835 12.4657C7.15006 12.3835 7.19591 12.2725 7.19591 12.1568C7.19591 12.0411 7.15006 11.93 7.06835 11.8478L5.46698 10.2515Z" fill="#333333"/>
<path d="M8.5712 11.4766C9.52357 10.8312 10.2276 9.89239 10.571 8.80992C10.9144 7.72746 10.8774 6.56366 10.4659 5.50416C10.0544 4.44466 9.29215 3.55048 8.30064 2.96424C7.30912 2.37801 6.14551 2.13348 4.99538 2.26966L5.8356 1.44766C5.87592 1.4087 5.90797 1.36233 5.92991 1.31121C5.95186 1.26009 5.96326 1.20524 5.96346 1.1498C5.96366 1.09435 5.95266 1.03942 5.93109 0.988151C5.90952 0.936881 5.87781 0.890288 5.83777 0.851048C5.79774 0.811809 5.75017 0.780697 5.6978 0.759501C5.64544 0.738305 5.58931 0.727443 5.53264 0.72754C5.47597 0.727636 5.41987 0.738689 5.36758 0.760063C5.31529 0.781436 5.26784 0.81271 5.22794 0.852085L3.71441 2.33229C3.67435 2.37131 3.64254 2.41768 3.6208 2.46873C3.59906 2.51979 3.58781 2.57454 3.58771 2.62984C3.5876 2.68515 3.59863 2.73994 3.62018 2.79107C3.64172 2.84221 3.67335 2.88869 3.71326 2.92786L5.28624 4.46727C5.32629 4.50643 5.37384 4.53748 5.42616 4.55866C5.47849 4.57983 5.53457 4.5907 5.59119 4.59066C5.67626 4.59049 5.75937 4.56571 5.83007 4.51942C5.90077 4.47314 5.95589 4.40743 5.98849 4.33056C6.02109 4.25369 6.02972 4.1691 6.01329 4.08745C5.99685 4.00579 5.95609 3.93072 5.89613 3.87168L5.11232 3.10486C5.27128 3.08652 5.43114 3.07668 5.59119 3.07539C6.51276 3.07522 7.41037 3.36256 8.1536 3.89564C8.89682 4.42873 9.44692 5.17978 9.72396 6.03967C10.001 6.89956 9.99054 7.82347 9.69411 8.67715C9.39768 9.53083 8.83072 10.2698 8.07562 10.7866C7.98269 10.8512 7.91966 10.9491 7.90033 11.0589C7.88099 11.1688 7.90691 11.2817 7.97242 11.3729C8.03794 11.4641 8.13771 11.5262 8.24991 11.5456C8.36212 11.5651 8.47762 11.5402 8.57116 11.4766H8.5712Z" fill="#333333"/>
</svg>
