<svg width="55" height="55" viewBox="0 0 55 55" fill="none" xmlns="http://www.w3.org/2000/svg">
<path d="M30.4459 22.6468L24.8789 17.0904C24.7983 17.0092 24.7025 16.9448 24.5969 16.9006C24.4913 16.8565 24.378 16.8337 24.2635 16.8334C24.149 16.8331 24.0356 16.8553 23.9298 16.8989C23.824 16.9424 23.7278 17.0064 23.6468 17.0871C23.5657 17.1678 23.5015 17.2637 23.4577 17.3693C23.4139 17.4749 23.3914 17.5881 23.3915 17.7023C23.3915 17.8166 23.4142 17.9297 23.4582 18.0352C23.5022 18.1407 23.5666 18.2365 23.6478 18.3171L27.7197 22.3802H16.5713C16.3408 22.3802 16.1198 22.4716 15.9568 22.6342C15.7938 22.7969 15.7023 23.0176 15.7023 23.2477C15.7023 23.4777 15.7938 23.6984 15.9568 23.8611C16.1198 24.0238 16.3408 24.1152 16.5713 24.1152H27.745L23.8628 27.9907C23.7821 28.0714 23.7181 28.1672 23.6745 28.2726C23.6309 28.378 23.6085 28.4909 23.6086 28.6049C23.6087 28.7189 23.6313 28.8318 23.6751 28.9371C23.7189 29.0424 23.7831 29.138 23.8639 29.2186C23.9447 29.2991 24.0407 29.363 24.1462 29.4065C24.2518 29.4501 24.3649 29.4724 24.4791 29.4723C24.5933 29.4722 24.7064 29.4496 24.8119 29.4059C24.9174 29.3622 25.0132 29.2981 25.0939 29.2174L30.4459 23.8735C30.6084 23.7106 30.6997 23.49 30.6997 23.2601C30.6997 23.0302 30.6084 22.8097 30.4459 22.6468Z" fill="#F9B741"/>
<path d="M50.1435 37.8845C50.4273 37.2913 50.5828 36.6451 50.6 35.9879C50.6 32.4327 46.5065 29.6016 41.0247 29.1009C42.283 25.3359 42.3128 21.2696 41.11 17.4866C39.9072 13.7036 37.5336 10.3988 34.3306 8.04736C31.1277 5.69595 27.2603 4.41904 23.2845 4.40024C19.3087 4.38143 15.4293 5.62169 12.2041 7.9427C8.97899 10.2637 6.57418 13.5459 5.3355 17.3173C4.09681 21.0888 4.08805 25.1552 5.31047 28.9319C6.5329 32.7087 8.92354 36.0012 12.1387 38.336C15.3538 40.6708 19.2278 41.9277 23.2036 41.926C24.9081 41.9123 26.6028 41.6672 28.2411 41.1976C28.308 41.3639 28.3836 41.5265 28.4677 41.6848C28.1834 42.2872 28.0313 42.9432 28.0216 43.6091C28.0216 47.5287 32.9799 50.6 39.3119 50.6C45.6416 50.6 50.5999 47.5287 50.5999 43.6091C50.588 42.945 50.435 42.2911 50.151 41.6905C50.4475 41.0996 50.6012 40.4475 50.5999 39.7866C50.5986 39.1257 50.4423 38.4743 50.1435 37.8845H50.1435ZM48.862 39.8093C48.862 42.6592 44.4876 45.0663 39.312 45.0663C34.1342 45.0663 29.7597 42.6592 29.7597 39.8093C29.7597 39.7868 29.7674 39.7647 29.7679 39.7423C32.4237 41.9893 35.8347 43.1464 39.312 42.98C42.7883 43.1461 46.1982 41.9893 48.8533 39.7432C48.8538 39.7653 48.8619 39.787 48.8619 39.8092L48.862 39.8093ZM48.862 35.9879C48.862 38.8378 44.4876 41.2449 39.312 41.2449C34.1342 41.2449 29.7597 38.8378 29.7597 35.9879C29.7597 33.1392 34.1342 30.732 39.312 30.732C44.4875 30.732 48.8619 33.1391 48.8619 35.9879L48.862 35.9879ZM6.13807 23.1537C6.13239 20.6615 6.67447 18.1984 7.72611 15.9381C8.77774 13.6778 10.3133 11.6753 12.2245 10.0719C14.1357 8.46849 16.3761 7.30317 18.7875 6.65814C21.1989 6.0131 23.7228 5.90404 26.181 6.33866C28.6393 6.77329 30.9721 7.741 33.015 9.17356C35.0578 10.6061 36.761 12.4686 38.0043 14.6298C39.2476 16.7909 40.0009 19.1981 40.211 21.6814C40.421 24.1648 40.0827 26.6639 39.22 29.0026C32.9334 29.0331 28.0216 32.0879 28.0216 35.9879C28.0385 36.6386 28.191 37.2786 28.4696 37.8672C28.2416 38.3703 28.1041 38.9095 28.0633 39.4601C25.5182 40.2312 22.8273 40.3951 20.2071 39.9385C17.587 39.4819 15.1108 38.4176 12.9779 36.8313C10.845 35.245 9.11492 33.181 7.92693 30.8053C6.73894 28.4297 6.12622 25.8089 6.13807 23.1537ZM48.8619 43.609C48.8619 46.4578 44.4875 48.8649 39.3119 48.8649C34.1341 48.8649 29.7596 46.4578 29.7596 43.609L29.7656 43.561C32.4214 45.8097 35.8335 46.9678 39.3119 46.8011C42.7895 46.9676 46.2007 45.8096 48.8557 43.5614L48.8619 43.609Z" fill="#F9B741"/>
<path d="M37.7964 32.2382C37.7309 32.2437 37.6663 32.2567 37.6039 32.2771C37.5561 32.2975 37.5104 32.3224 37.4674 32.3515C37.4162 32.3787 37.3679 32.4111 37.3234 32.4483C37.2797 32.4922 37.241 32.5408 37.2079 32.5931C37.1807 32.6223 37.1558 32.6534 37.1333 32.6862L36.511 33.8892L35.9973 34.8821C35.9449 34.9832 35.9129 35.0937 35.9033 35.2072C35.8937 35.3206 35.9066 35.4349 35.9413 35.5434C35.976 35.6519 36.0318 35.7524 36.1055 35.8394C36.1791 35.9263 36.2693 35.9979 36.3707 36.0501C36.4935 36.1144 36.6302 36.1478 36.769 36.1472C36.9285 36.1475 37.085 36.1038 37.2212 36.0208C37.3573 35.9379 37.4679 35.819 37.5407 35.6773L38.0544 34.6844L38.4336 33.9513H41.4195C42.938 33.9513 43.9451 34.6302 43.9451 35.0798C43.9451 35.5293 42.938 36.2082 41.4195 36.2082H35.8411C35.8012 36.2132 35.7617 36.2212 35.7229 36.2321C35.662 36.2377 35.6018 36.2498 35.5433 36.2682C35.4441 36.3162 35.3497 36.3734 35.2613 36.439C35.2161 36.4839 35.1762 36.5337 35.1422 36.5874C35.1158 36.6159 35.0914 36.6462 35.0694 36.6781L34.1302 38.4956C34.0769 38.5968 34.0442 38.7076 34.034 38.8215C34.0238 38.9355 34.0362 39.0503 34.0707 39.1594C34.1051 39.2685 34.1608 39.3697 34.2346 39.4572C34.3084 39.5447 34.3988 39.6167 34.5006 39.6692C34.6025 39.7217 34.7137 39.7535 34.8279 39.7628C34.9421 39.7722 35.057 39.7589 35.166 39.7237C35.275 39.6886 35.376 39.6322 35.4631 39.5579C35.5502 39.4836 35.6217 39.3928 35.6735 39.2908L36.3699 37.9432H41.4194C43.8091 37.9432 45.6829 36.6849 45.6829 35.0798C45.6829 33.4746 43.8091 32.2163 41.4194 32.2163H37.9051C37.8684 32.2212 37.8321 32.2285 37.7964 32.2382Z" fill="#F9B741"/>
</svg>
