<svg width="55" height="55" viewBox="0 0 55 55" fill="none" xmlns="http://www.w3.org/2000/svg">
<path d="M50.1507 37.8694C50.4301 37.2801 50.5831 36.6391 50.5999 35.9875C50.5999 32.432 46.5058 29.6007 41.0238 29.1002C42.2818 25.3352 42.3116 21.2689 41.1086 17.4859C39.9057 13.703 37.5322 10.3983 34.3292 8.04699C31.1263 5.69569 27.2589 4.41891 23.2833 4.40023C19.3076 4.38155 15.4284 5.62193 12.2034 7.94302C8.97843 10.2641 6.57381 13.5464 5.33528 17.3178C4.09675 21.0893 4.08812 25.1557 5.31063 28.9323C6.53314 32.709 8.92381 36.0014 12.1389 38.3361C15.354 40.6708 19.2279 41.9276 23.2036 41.9257C24.9081 41.9135 26.6031 41.6699 28.2418 41.2016C28.3066 41.361 28.3795 41.517 28.4601 41.6689C28.1763 42.2767 28.0268 42.9383 28.0216 43.6089C28.0216 47.5286 32.9799 50.6 39.3119 50.6C45.6416 50.6 50.5999 47.5287 50.5999 43.6089C50.5995 43.0901 50.5107 42.5752 50.3374 42.0862C50.2912 41.9609 50.2161 41.8482 50.1181 41.7573C50.4291 41.1574 50.5942 40.4928 50.5999 39.8173C50.6056 39.1418 50.4517 38.4744 50.1507 37.8694V37.8694ZM28.0652 39.4651C24.3799 40.5597 20.4324 40.3806 16.8617 38.9569C13.291 37.5332 10.3061 34.9481 8.39025 31.6201C6.47437 28.2922 5.73962 24.4161 6.30495 20.6194C6.87028 16.8227 8.7026 13.3275 11.5053 10.6998C14.308 8.07199 17.917 6.4654 21.7481 6.14005C25.5792 5.81471 29.4082 6.78966 32.6153 8.90707C35.8223 11.0245 38.2196 14.1604 39.4192 17.8073C40.6188 21.4541 40.5505 25.3984 39.2252 29.0016C32.9361 29.0306 28.0217 32.0863 28.0217 35.9875C28.0388 36.6424 28.1933 37.2865 28.4752 37.8781C28.2469 38.3792 28.1082 38.9163 28.0652 39.4651ZM39.3119 48.8648C34.1341 48.8648 29.7596 46.4577 29.7596 43.6088L29.7653 43.5603C32.4211 45.8094 35.8333 46.9677 39.3119 46.801C42.7886 46.9673 46.199 45.81 48.854 43.563C48.8543 43.5784 48.8619 43.5934 48.8619 43.6088C48.8619 46.4577 44.4875 48.8648 39.3119 48.8648ZM39.3119 45.066C34.1341 45.066 29.7596 42.6589 29.7596 39.8089C29.7596 39.7867 29.7677 39.7647 29.7683 39.7425C32.4241 41.9891 35.8349 43.146 39.3119 42.9797C42.7885 43.1459 46.1987 41.9888 48.8538 39.7421C48.8544 39.7644 48.862 39.7866 48.862 39.8089C48.8619 42.6589 44.4875 45.066 39.3119 45.066ZM39.3119 41.2446C34.1341 41.2446 29.7596 38.8374 29.7596 35.9875C29.7596 33.1386 34.1341 30.7314 39.3119 30.7314C44.4875 30.7314 48.8619 33.1386 48.8619 35.9875C48.8619 38.8374 44.4875 41.2446 39.3119 41.2446Z" fill="#AC8BFC"/>
<path d="M41.4164 32.2147H37.902C37.8603 32.2198 37.819 32.2281 37.7785 32.2396C37.7199 32.2452 37.662 32.2569 37.6058 32.2744C37.5519 32.2968 37.5005 32.3248 37.4525 32.3579C37.3467 32.4102 37.2593 32.4931 37.2017 32.5959C37.1759 32.6238 37.152 32.6534 37.1303 32.6846L36.508 33.8876L35.9943 34.8805C35.9418 34.9817 35.9099 35.0921 35.9003 35.2056C35.8907 35.3191 35.9036 35.4333 35.9383 35.5418C35.973 35.6503 36.0288 35.7509 36.1024 35.8378C36.1761 35.9248 36.2662 35.9964 36.3676 36.0485C36.4905 36.1129 36.6272 36.1463 36.766 36.1457C36.9255 36.146 37.082 36.1022 37.2181 36.0193C37.3543 35.9364 37.4649 35.8175 37.5376 35.6757L38.0513 34.6828L38.4306 33.9497H41.4165C42.935 33.9497 43.942 34.6286 43.942 35.0782C43.942 35.5278 42.935 36.2067 41.4165 36.2067H35.838C35.7972 36.2117 35.7569 36.2198 35.7174 36.2309C35.6579 36.2366 35.5991 36.2485 35.5421 36.2664C35.4868 36.2893 35.4341 36.318 35.385 36.3522C35.2803 36.4046 35.1938 36.4872 35.1369 36.5893C35.1114 36.6167 35.0878 36.6459 35.0663 36.6766L34.1271 38.493C34.0747 38.5941 34.0427 38.7046 34.0331 38.8181C34.0235 38.9315 34.0364 39.0458 34.0711 39.1543C34.1058 39.2628 34.1616 39.3634 34.2353 39.4504C34.309 39.5373 34.3991 39.6089 34.5006 39.661C34.6234 39.7254 34.7601 39.7587 34.8988 39.7581C35.0583 39.7582 35.2147 39.7143 35.3508 39.6314C35.487 39.5485 35.5976 39.4298 35.6705 39.2882L36.3667 37.9418H41.4164C43.8061 37.9418 45.6799 36.6834 45.6799 35.0783C45.6799 33.4731 43.8062 32.2147 41.4164 32.2147Z" fill="#AC8BFC"/>
<path d="M22.584 29.0209C22.421 28.8579 22.1999 28.7663 21.9692 28.7661C21.7386 28.7658 21.5173 28.8571 21.354 29.0198C21.1908 29.1825 21.0989 29.4032 21.0987 29.6335C21.0985 29.8638 21.1899 30.0847 21.3529 30.2477L22.9593 31.8514C21.2231 31.8048 19.5403 31.2423 18.1261 30.2358C16.7119 29.2292 15.6306 27.8244 15.0205 26.201C14.4104 24.5777 14.2993 22.8095 14.7013 21.1227C15.1033 19.4359 16.0001 17.9072 17.2772 16.732C17.361 16.6549 17.4289 16.5621 17.4768 16.4588C17.5247 16.3555 17.5517 16.2438 17.5564 16.13C17.561 16.0163 17.5432 15.9028 17.5039 15.7959C17.4645 15.6891 17.4045 15.591 17.3272 15.5073C17.25 15.4236 17.1569 15.356 17.0534 15.3082C16.9499 15.2604 16.838 15.2335 16.7241 15.2289C16.6102 15.2243 16.4965 15.2421 16.3894 15.2814C16.2824 15.3207 16.1842 15.3806 16.1004 15.4578C14.5561 16.8794 13.4755 18.7317 12.9991 20.7741C12.5227 22.8166 12.6725 24.9548 13.4289 26.9112C14.1854 28.8676 15.5136 30.5518 17.2411 31.745C18.9686 32.9382 21.0155 33.5853 23.1161 33.6023L21.4751 35.2405C21.3131 35.4036 21.2225 35.6243 21.2231 35.854C21.2237 36.0838 21.3155 36.3039 21.4784 36.4662C21.6413 36.6285 21.862 36.7197 22.0921 36.7199C22.3222 36.7201 22.5431 36.6293 22.7062 36.4672L25.759 33.4184C25.921 33.2553 26.0119 33.0348 26.0119 32.8051C26.0119 32.5753 25.921 32.3549 25.759 32.1917L22.584 29.0209Z" fill="#AC8BFC"/>
<path d="M29.2201 31.7214C31.1442 30.3935 32.5671 28.4604 33.2618 26.2306C33.9564 24.0009 33.8827 21.6031 33.0524 19.42C32.2221 17.237 30.683 15.3946 28.681 14.1871C26.679 12.9795 24.3294 12.4764 22.0074 12.7581L23.7028 11.0655C23.7842 10.9853 23.8489 10.8898 23.8932 10.7845C23.9375 10.6792 23.9605 10.5662 23.9609 10.452C23.9613 10.3378 23.9391 10.2247 23.8956 10.1191C23.8521 10.0135 23.788 9.9175 23.7072 9.83667C23.6264 9.75585 23.5304 9.69177 23.4247 9.64811C23.319 9.60445 23.2057 9.58208 23.0913 9.58228C22.9769 9.58248 22.8637 9.60524 22.7581 9.64927C22.6526 9.69329 22.5568 9.75771 22.4763 9.83881L19.4212 12.8876C19.3403 12.968 19.2761 13.0635 19.2322 13.1686C19.1883 13.2738 19.1656 13.3866 19.1654 13.5005C19.1652 13.6144 19.1875 13.7272 19.2309 13.8326C19.2744 13.9379 19.3383 14.0336 19.4188 14.1143L22.5939 17.2851C22.6747 17.3658 22.7707 17.4297 22.8763 17.4733C22.9819 17.517 23.0951 17.5394 23.2094 17.5393C23.3811 17.5389 23.5489 17.4879 23.6916 17.3925C23.8343 17.2972 23.9456 17.1619 24.0114 17.0035C24.0772 16.8452 24.0946 16.671 24.0614 16.5028C24.0283 16.3346 23.946 16.18 23.825 16.0584L22.2422 14.4783C24.1726 14.263 26.1198 14.6958 27.7765 15.7082C29.4331 16.7206 30.7048 18.255 31.3907 20.0692C32.0766 21.8834 32.1377 23.8739 31.5644 25.7266C30.991 27.5793 29.8158 29.1886 28.2244 30.3004C28.1304 30.3654 28.0501 30.4484 27.9883 30.5445C27.9265 30.6405 27.8843 30.7479 27.8641 30.8603C27.8439 30.9727 27.8462 31.088 27.8708 31.1995C27.8954 31.311 27.9418 31.4166 28.0073 31.5102C28.0729 31.6038 28.1564 31.6835 28.2529 31.7448C28.3494 31.8061 28.4571 31.8477 28.5698 31.8674C28.6825 31.887 28.7979 31.8842 28.9095 31.8592C29.0211 31.8341 29.1267 31.7873 29.2201 31.7214L29.2201 31.7214Z" fill="#AC8BFC"/>
<path d="M18.9031 23.4979C18.9031 23.728 18.9947 23.9486 19.1577 24.1113C19.3206 24.274 19.5416 24.3654 19.7721 24.3655H25.2655L23.7392 25.7809C23.5702 25.9372 23.4704 26.1542 23.4617 26.3841C23.453 26.6139 23.5361 26.8378 23.6928 27.0065C23.8494 27.1751 24.0668 27.2748 24.297 27.2835C24.5273 27.2921 24.7515 27.2092 24.9205 27.0528L27.9145 24.2774C27.9985 24.2 28.0663 24.1068 28.1141 24.0031C28.1619 23.8995 28.1886 23.7874 28.1928 23.6734C28.197 23.5594 28.1786 23.4456 28.1386 23.3388C28.0986 23.2319 28.0378 23.134 27.9598 23.0506L25.0676 19.9431C24.99 19.8592 24.8966 19.7914 24.7927 19.7436C24.6888 19.6958 24.5765 19.6689 24.4622 19.6646C24.3479 19.6602 24.2338 19.6785 24.1266 19.7182C24.0194 19.758 23.9211 19.8185 23.8373 19.8963C23.7536 19.9741 23.6861 20.0676 23.6386 20.1716C23.5912 20.2755 23.5648 20.3877 23.5609 20.5019C23.5571 20.616 23.5758 20.7298 23.6161 20.8366C23.6564 20.9435 23.7175 21.0414 23.7957 21.1246L25.1966 22.6304H19.7721C19.5416 22.6305 19.3206 22.7219 19.1577 22.8846C18.9947 23.0472 18.9031 23.2679 18.9031 23.4979Z" fill="#AC8BFC"/>
</svg>
